# xmcd
#
# Track frame offsets: 
#        182
#        19015
#        38497
#        58850
#        73410
#        89347
#        103577
#        123867
#        137447
#        153447
#        167762
#        184200
#
# Disc length: 2651 seconds
#
# Revision: 2
# Processed by: cddbd v1.5.2PL0 Copyright (c) Steve Scherf et al.
# Submitted via: ExactAudioCopy v1.0b5
#
DISCID=9d0a590c
DTITLE=Gottlieb Wendehals - Hier Fliegen Gleich Die Locher Aus Dem Kas
DTITLE=e
DYEAR=1982
DGENRE=Humour
TTITLE0=Polonase Blankenese
TTITLE1=Abfahr´n
TTITLE2=Jap Dadel Dip, Dadel Du...
TTITLE3=Das Halte Ich Im Kopf Nich´ Aus
TTITLE4=Wir Lassen Alle Funfe Gerade Sein
TTITLE5=Mensch Arger Dich Nich
TTITLE6=Heut´ Geht Ein Ding Ab
TTITLE7=Du Hast Geburtstag
TTITLE8=Heut´ Abend Schiessen Wir Den Vogel Ab
TTITLE9=Mach Dir Nix Draus
TTITLE10=So Bin Ich, So Bleib Ich
TTITLE11=Polonase Blankenese
EXTD=YEAR: 1982 ID3G: 100
EXTT0=
EXTT1=
EXTT2=
EXTT3=
EXTT4=
EXTT5=
EXTT6=
EXTT7=
EXTT8=
EXTT9=
EXTT10=
EXTT11=
PLAYORDER=
